<svg xmlns="http://www.w3.org/2000/svg" width="35.902" height="36" viewBox="0 0 35.902 36">
  <path id="Icon_simple-skype" data-name="Icon simple-skype" d="M18.1,28.311c-6.035,0-8.73-2.969-8.73-5.2a1.9,1.9,0,0,1,2-1.944c2.585,0,1.91,3.715,6.73,3.715,2.462,0,3.825-1.343,3.825-2.716,0-.826-.4-1.74-2.031-2.143l-5.364-1.343c-4.32-1.086-5.1-3.429-5.1-5.627,0-4.571,4.292-6.286,8.323-6.286,3.706,0,8.09,2.059,8.09,4.8a1.976,1.976,0,0,1-2.18,1.86c-2.2,0-1.8-3.056-6.246-3.056-2.2,0-3.438,1-3.438,2.425s1.729,1.887,3.236,2.231l3.955.88c4.337.973,5.436,3.519,5.436,5.916,0,3.714-2.853,6.486-8.583,6.486M34.648,20.99l-.043.2-.066-.36c.022.067.066.111.089.18a17.6,17.6,0,0,0,.271-3.078A16.985,16.985,0,0,0,29.911,5.91a17.222,17.222,0,0,0-5.392-3.639A15.011,15.011,0,0,0,18.027.876a17.152,17.152,0,0,0-3.215.306l.179.09-.359-.049.179-.038a10.059,10.059,0,0,0-13.5,13.776l.03-.186.061.359-.09-.172a16.848,16.848,0,0,0-.258,2.932,17.117,17.117,0,0,0,1.326,6.624,16.394,16.394,0,0,0,3.641,5.413,16.989,16.989,0,0,0,5.392,3.663,16.761,16.761,0,0,0,9.571,1.078l-.178-.093.36.069-.2.045a10.041,10.041,0,0,0,14.983-8.762,10.157,10.157,0,0,0-1.279-4.9" transform="translate(-0.048)" fill="#fff"/>
</svg>
