<svg xmlns="http://www.w3.org/2000/svg" width="31.5" height="31.5" viewBox="0 0 31.5 31.5">
  <path id="Icon_awesome-phone-alt" data-name="Icon awesome-phone-alt" d="M30.6,22.26l-6.891-2.953a1.477,1.477,0,0,0-1.723.425l-3.052,3.728a22.8,22.8,0,0,1-10.9-10.9l3.728-3.052a1.473,1.473,0,0,0,.425-1.723L9.235.893A1.486,1.486,0,0,0,7.543.038l-6.4,1.477A1.477,1.477,0,0,0,0,2.953,28.544,28.544,0,0,0,28.547,31.5a1.477,1.477,0,0,0,1.44-1.144l1.477-6.4a1.494,1.494,0,0,0-.862-1.7Z" transform="translate(0 0)" fill="#fff"/>
</svg>
